# xmcd
#
# Track frame offsets: 
#        150
#        14194
#        24592
#        35825
#        48858
#        59083
#        73860
#        86747
#        97812
#        106043
#        121881
#        132982
#        145583
#        161913
#        175119
#        186445
#        198319
#        208294
#        221018
#        234621
#        246775
#        258186
#        272270
#        285680
#        297280
#
# Disc length: 4142 seconds
#
# Revision: 1
# Processed by: cddbd v1.5.2PL0 Copyright (c) Steve Scherf et al.
# Submitted via: ExactAudioCopy v1.0b1
#
DISCID=80102c19
DTITLE=Slim Whitman - Indian Love Call
DYEAR=2006
DGENRE=Country
TTITLE0=Indian Love Call
TTITLE1=Rose Marie
TTITLE2=Singing Hills
TTITLE3=Red Sails in the Sunset
TTITLE4=Anytime You're Feeling Lonely
TTITLE5=MockingBird Hill
TTITLE6=Please Release Me
TTITLE7=The Wayward Wind
TTITLE8=Have You Ever Been Lonely
TTITLE9=Down in the Valley
TTITLE10=Singing the Blues
TTITLE11=Half as Much
TTITLE12=The Three Bells
TTITLE13=Til I Can Waltz with You again
TTITLE14=It is No Secret
TTITLE15=Now is the Hour
TTITLE16=Cara Mia
TTITLE17=Tennesse Waltz
TTITLE18=You are my Sunshine
TTITLE19=I'm Casting My Lasso towards the Sky
TTITLE20=I Hate to see You Cry
TTITLE21=I'll Never Pass this way again
TTITLE22=Tears Can Never Drown The Flame (That's in My Heart)
TTITLE23=There's a Rainbow in every Teardrop
TTITLE24=Song of the old Waterwheel
EXTD=YEAR: 2005
EXTT0=
EXTT1=
EXTT2=
EXTT3=
EXTT4=
EXTT5=
EXTT6=
EXTT7=
EXTT8=
EXTT9=
EXTT10=
EXTT11=
EXTT12=
EXTT13=
EXTT14=
EXTT15=
EXTT16=
EXTT17=
EXTT18=
EXTT19=
EXTT20=
EXTT21=
EXTT22=
EXTT23=
EXTT24=
PLAYORDER=
